<svg xmlns="http://www.w3.org/2000/svg" viewBox="0 0 64 64" role="img" aria-labelledby="favicon-title">
  <title id="favicon-title">CoCo Agent</title>
  <rect width="64" height="64" rx="12" fill="#002b36"/>
  <path fill="#2aa198" fill-rule="evenodd" d="M28 10H19C12.925 10 8 14.925 8 21v22c0 6.075 4.925 11 11 11h9v-8h-8c-2.209 0-4-1.791-4-4V22c0-2.209 1.791-4 4-4h8zm8 0h9c6.075 0 11 4.925 11 11v22c0 6.075-4.925 11-11 11h-9v-8h8c2.209 0 4-1.791 4-4V22c0-2.209-1.791-4-4-4h-8z"/>
  <path fill="#fdf6e3" d="M29 24l8 8-8 8v-6l2-2-2-2z"/>
</svg>
